<svg width="107" height="24" viewBox="0 0 107 24" fill="none" xmlns="http://www.w3.org/2000/svg">
<path d="M11.0489 2.92705C11.3483 2.00574 12.6517 2.00574 12.9511 2.92705L14.4697 7.60081C14.6035 8.01284 14.9875 8.2918 15.4207 8.2918H20.335C21.3037 8.2918 21.7065 9.53141 20.9228 10.1008L16.947 12.9894C16.5966 13.244 16.4499 13.6954 16.5838 14.1074L18.1024 18.7812C18.4017 19.7025 17.3472 20.4686 16.5635 19.8992L12.5878 17.0106C12.2373 16.756 11.7627 16.756 11.4122 17.0106L7.43648 19.8992C6.65276 20.4686 5.59828 19.7025 5.89763 18.7812L7.41623 14.1074C7.55011 13.6954 7.40345 13.244 7.05296 12.9894L3.07722 10.1008C2.29351 9.53141 2.69628 8.2918 3.66501 8.2918H8.57929C9.01252 8.2918 9.39647 8.01284 9.53035 7.60081L11.0489 2.92705Z" fill="#D20000"/>
<path d="M32.0489 2.92705C32.3483 2.00574 33.6517 2.00574 33.9511 2.92705L35.4697 7.60081C35.6035 8.01284 35.9875 8.2918 36.4207 8.2918H41.335C42.3037 8.2918 42.7065 9.53141 41.9228 10.1008L37.947 12.9894C37.5966 13.244 37.4499 13.6954 37.5838 14.1074L39.1024 18.7812C39.4017 19.7025 38.3472 20.4686 37.5635 19.8992L33.5878 17.0106C33.2373 16.756 32.7627 16.756 32.4122 17.0106L28.4365 19.8992C27.6528 20.4686 26.5983 19.7025 26.8976 18.7812L28.4162 14.1074C28.5501 13.6954 28.4034 13.244 28.053 12.9894L24.0772 10.1008C23.2935 9.53141 23.6963 8.2918 24.665 8.2918H29.5793C30.0125 8.2918 30.3965 8.01284 30.5303 7.60081L32.0489 2.92705Z" fill="#D20000"/>
<path d="M52.5528 2.79863C52.8594 1.89275 54.1406 1.89275 54.4472 2.79862L56.0765 7.61239C56.2139 8.01849 56.595 8.2918 57.0237 8.2918H62.2065C63.185 8.2918 63.5812 9.55218 62.7785 10.112L58.6568 12.9869C58.2919 13.2413 58.139 13.7063 58.2816 14.1276L59.8724 18.8277C60.1818 19.7419 59.1447 20.5207 58.3531 19.9685L54.0721 16.9826C53.7284 16.7429 53.2716 16.7429 52.9279 16.9826L48.6469 19.9685C47.8553 20.5207 46.8182 19.7419 47.1276 18.8277L48.7184 14.1276C48.861 13.7063 48.7081 13.2413 48.3432 12.9869L44.2215 10.112C43.4188 9.55218 43.815 8.2918 44.7935 8.2918H49.9763C50.405 8.2918 50.7861 8.01849 50.9235 7.61239L52.5528 2.79863Z" fill="#D20000"/>
<path d="M73.0489 2.92705C73.3483 2.00574 74.6517 2.00574 74.9511 2.92705L76.4697 7.60081C76.6035 8.01284 76.9875 8.2918 77.4207 8.2918H82.335C83.3037 8.2918 83.7065 9.53141 82.9228 10.1008L78.947 12.9894C78.5966 13.244 78.4499 13.6954 78.5838 14.1074L80.1024 18.7812C80.4017 19.7025 79.3472 20.4686 78.5635 19.8992L74.5878 17.0106C74.2373 16.756 73.7627 16.756 73.4122 17.0106L69.4365 19.8992C68.6528 20.4686 67.5983 19.7025 67.8976 18.7812L69.4162 14.1074C69.5501 13.6954 69.4034 13.244 69.053 12.9894L65.0772 10.1008C64.2935 9.53141 64.6963 8.2918 65.665 8.2918H70.5793C71.0125 8.2918 71.3965 8.01284 71.5303 7.60081L73.0489 2.92705Z" fill="#D20000"/>
<path d="M94.0489 2.92705C94.3483 2.00574 95.6517 2.00574 95.9511 2.92705L97.4697 7.60081C97.6035 8.01284 97.9875 8.2918 98.4207 8.2918H103.335C104.304 8.2918 104.706 9.53141 103.923 10.1008L99.947 12.9894C99.5966 13.244 99.4499 13.6954 99.5838 14.1074L101.102 18.7812C101.402 19.7025 100.347 20.4686 99.5635 19.8992L95.5878 17.0106C95.2373 16.756 94.7627 16.756 94.4122 17.0106L90.4365 19.8992C89.6528 20.4686 88.5983 19.7025 88.8976 18.7812L90.4162 14.1074C90.5501 13.6954 90.4034 13.244 90.053 12.9894L86.0772 10.1008C85.2935 9.53141 85.6963 8.2918 86.665 8.2918H91.5793C92.0125 8.2918 92.3965 8.01284 92.5303 7.60081L94.0489 2.92705Z" fill="#B5B5B5"/>
</svg>
