<svg width="125" height="343" viewBox="0 0 125 343" fill="none" xmlns="http://www.w3.org/2000/svg">
<path d="M0 68.5593C0 106.424 27.9822 166.855 62.5 166.855C97.0178 166.855 125 106.424 125 68.5593C125 50.3763 118.415 32.9379 106.694 20.0806C94.9732 7.2232 79.076 0 62.5 0C45.924 0 30.0268 7.2232 18.3058 20.0806C6.5848 32.9379 0 50.3763 0 68.5593Z" fill="#D20000"/>
<path d="M60.1852 169.293C68.0395 172.26 69.9198 184.009 67.2182 192.625C64.5167 201.242 58.7949 208.39 55.9159 216.937C54.6022 221.248 53.6592 225.684 53.0992 230.187C51.4545 240.91 49.8053 251.821 51.0726 262.605C52.2747 272.835 56.053 282.479 60.2682 291.699C68.4318 309.551 78.3618 326.363 89.8788 341.831" stroke="#2F2E41" stroke-width="2"/>
<path d="M56.4758 173.463C60.4919 170.636 64.508 170.636 68.524 173.463V160.247H56.4758V173.463Z" fill="#D20000"/>
<path d="M68.4926 166.575C66.6205 167.615 64.5501 168.152 62.4517 168.143C60.3534 168.133 58.2871 167.578 56.4229 166.521" stroke="#2F2E41" stroke-width="2"/>
<path opacity="0.4" d="M36.521 56.9952C43.7988 56.9952 49.6987 49.2289 49.6987 39.6488C49.6987 30.0687 43.7988 22.3025 36.521 22.3025C29.2431 22.3025 23.3433 30.0687 23.3433 39.6488C23.3433 49.2289 29.2431 56.9952 36.521 56.9952Z" fill="white"/>
</svg>
