<svg width="215" height="441" viewBox="0 0 215 441" fill="none" xmlns="http://www.w3.org/2000/svg">
<path d="M215 188.866C215 223.586 186.794 279 152 279C117.206 279 89 223.586 89 188.866C89 172.193 95.6375 156.203 107.452 144.413C119.267 132.623 135.291 126 152 126C168.709 126 184.733 132.623 196.548 144.413C208.362 156.203 215 172.193 215 188.866Z" fill="#D20000"/>
<path d="M154.257 281C146.253 283.734 144.337 294.561 147.09 302.501C149.843 310.442 155.673 317.029 158.607 324.905C159.946 328.878 160.906 332.966 161.477 337.116C163.153 346.997 164.834 357.052 163.542 366.99C162.317 376.417 158.467 385.305 154.172 393.802C145.854 410.253 135.735 425.745 124 440" stroke="#2F2E41" stroke-width="2"/>
<path d="M158 285C154 282.433 150 282.433 146 285V273H158V285Z" fill="#FF6584"/>
<path d="M146 279.033C147.861 279.675 149.92 280.006 152.006 280C154.092 279.994 156.147 279.651 158 279" stroke="#2F2E41" stroke-width="2"/>
<path opacity="0.4" d="M178 178C185.18 178 191 170.837 191 162C191 153.163 185.18 146 178 146C170.82 146 165 153.163 165 162C165 170.837 170.82 178 178 178Z" fill="white"/>
<path d="M65.2567 155C57.2535 157.734 55.3375 168.561 58.0903 176.501C60.8431 184.442 66.6734 191.029 69.6071 198.905C70.9456 202.878 71.9065 206.966 72.4772 211.116C74.153 220.997 75.8335 231.052 74.5422 240.99C73.3173 250.417 69.4674 259.305 65.1722 267.802C56.8538 284.253 46.7354 299.745 35 314" stroke="#2F2E41" stroke-width="2"/>
<path d="M126 62.8663C126 97.5865 97.7939 153 63 153C28.2061 153 0 97.5865 0 62.8663C0 46.1931 6.63747 30.2028 18.4523 18.4131C30.267 6.6234 46.2914 0 63 0C79.7086 0 95.7329 6.6234 107.548 18.4131C119.363 30.2028 126 46.1931 126 62.8663Z" fill="#DCDCDC"/>
<path d="M69 159C65 156.433 61 156.433 57 159V147H69V159Z" fill="#4741A9"/>
<path d="M57 153.033C58.8613 153.675 60.9197 154.006 63.0059 154C65.0922 153.994 67.1465 153.651 69 153" stroke="#2F2E41" stroke-width="2"/>
<path opacity="0.4" d="M89.5 52C96.9558 52 103 44.8366 103 36C103 27.1634 96.9558 20 89.5 20C82.0442 20 76 27.1634 76 36C76 44.8366 82.0442 52 89.5 52Z" fill="white"/>
</svg>
