<svg width="206" height="204" viewBox="0 0 206 204" fill="none" xmlns="http://www.w3.org/2000/svg">
<path d="M205.869 15.8788L205.496 21.0271C205.441 21.7263 204.143 38.372 194.565 57.8258C186.347 74.511 170.354 96.2429 140.159 108.456C137.803 109.415 135.357 110.31 132.822 111.141L129.995 102.006C137.093 99.7069 143.93 96.6292 150.388 92.8258C165.779 83.6797 177.745 70.6259 186.089 53.8279C190.517 44.8843 193.672 35.3323 195.458 25.4648H161.105V15.8788H205.869Z" fill="white"/>
<path opacity="0.1" d="M136.46 108.462C166.65 96.2486 182.649 74.5223 190.862 57.8371C200.439 38.3833 201.743 21.7488 201.792 21.0384L202.165 15.8901H206L205.628 21.0384C205.578 21.7376 204.274 38.3833 194.697 57.8371C186.478 74.5223 170.485 96.2486 140.296 108.462C137.94 109.421 135.492 110.317 132.954 111.152L132.581 109.951C133.904 109.466 135.197 108.97 136.46 108.462Z" fill="white"/>
<path d="M76.0153 102.006L73.1881 111.141C70.6495 110.306 68.2022 109.409 65.8462 108.451C35.6568 96.2372 19.6581 74.511 11.4451 57.8258C1.86774 38.372 0.563743 21.7376 0.514431 21.0271L0.141846 15.8788H44.8835V25.4648H10.5246C12.3206 35.3335 15.4851 44.8855 19.9211 53.8279C28.2656 70.6259 40.2263 83.6797 55.6169 92.8201C62.0758 96.6276 68.9148 99.7073 76.0153 102.006V102.006Z" fill="white"/>
<path opacity="0.1" d="M69.5397 108.462C39.3503 96.2486 23.3516 74.5223 15.1385 57.8371C5.5612 38.3833 4.25719 21.7488 4.20788 21.0384L3.83531 15.8901H0L0.372569 21.0384C0.42188 21.7376 1.72589 38.3833 11.3032 57.8371C19.5217 74.5223 35.515 96.2486 65.7043 108.462C68.0603 109.421 70.5076 110.317 73.0462 111.152L73.4188 109.951C72.1002 109.466 70.8071 108.97 69.5397 108.462Z" fill="white"/>
<path d="M155 169.023V204H51V169.023L54.3074 165.971C88.0094 157.691 94.8391 136.099 96.2006 127.556C96.4032 126.376 96.5191 125.189 96.5479 124H109.408C109.437 125.189 109.553 126.376 109.755 127.556C111.139 136.099 117.969 157.699 151.649 165.971L155 169.023Z" fill="white"/>
<path opacity="0.1" d="M154.689 190.309H51.3164V196.794H154.689V190.309Z" fill="black"/>
<path opacity="0.1" d="M35.6135 15.8788H44.884V25.4648H36.4354C36.103 22.3071 35.829 19.1118 35.6135 15.8788Z" fill="black"/>
<path opacity="0.1" d="M76.0158 102.006L73.1887 111.141C70.65 110.306 68.2027 109.409 65.8468 108.451C61.9712 103.58 58.5465 98.3471 55.6174 92.8202C62.0764 96.6277 68.9153 99.7073 76.0158 102.006Z" fill="black"/>
<path opacity="0.1" d="M129.99 102.006C137.087 99.7069 143.924 96.6293 150.383 92.8258C147.452 98.3534 144.027 103.588 140.153 108.462C137.797 109.421 135.352 110.315 132.817 111.146L129.99 102.006Z" fill="black"/>
<path opacity="0.1" d="M170.386 15.8788C170.171 19.1118 169.897 22.3071 169.564 25.4648H161.121V15.8788H170.386Z" fill="black"/>
<path opacity="0.1" d="M109.739 129.027C105.29 129.914 100.716 129.914 96.2664 129.027C96.4678 127.282 96.583 125.528 96.6115 123.771H109.394C109.423 125.528 109.538 127.282 109.739 129.027V129.027Z" fill="black"/>
<path d="M36.7094 0C36.9449 71.0826 66.5316 128.564 103.005 128.564C139.479 128.564 169.06 71.0826 169.302 0H36.7094Z" fill="white"/>
<path opacity="0.1" d="M48.4892 0H36.7094C36.9449 71.0826 66.5316 128.564 103.005 128.564C104.979 128.561 106.949 128.389 108.895 128.051C75.1775 122.255 48.7139 67.2144 48.4892 0Z" fill="white"/>
</svg>
