<svg width="37" height="38" viewBox="0 0 37 38" fill="none" xmlns="http://www.w3.org/2000/svg">
<path d="M25.0301 5.37552C23.1118 3.41993 20.6635 2.04135 17.973 1.40179C15.2825 0.762229 12.4615 0.888271 9.84152 1.76509C7.22159 2.6419 4.91158 4.23306 3.18298 6.35158C1.45437 8.4701 0.378992 11.0279 0.0832293 13.7245C-0.212533 16.4211 0.283621 19.1443 1.51335 21.5742C2.74308 24.004 4.6553 26.0396 7.0253 27.4416C9.39529 28.8436 12.1246 29.5538 14.8924 29.4887C17.6602 29.4236 20.3516 28.586 22.6502 27.0742L33.1621 37.7867C33.2265 37.8525 33.3035 37.9053 33.3888 37.9419C33.4741 37.9784 33.5659 37.9982 33.659 37.9999C33.752 38.0016 33.8445 37.9853 33.9312 37.9519C34.0178 37.9184 34.0968 37.8686 34.1637 37.8051L36.7822 35.3446C36.8495 35.2815 36.9033 35.2061 36.9406 35.1225C36.978 35.039 36.9981 34.9491 36.9999 34.8579C37.0016 34.7667 36.985 34.6761 36.9509 34.5912C36.9167 34.5064 36.8658 34.429 36.8011 34.3635L26.2891 23.651C28.3062 20.9459 29.2856 17.631 29.0554 14.2888C28.8251 10.9465 27.3999 7.79062 25.0301 5.37552V5.37552ZM21.7553 22.5991C20.2722 23.9957 18.3996 24.93 16.3744 25.2841C14.3492 25.6382 12.2623 25.396 10.3776 24.5883C8.49283 23.7806 6.8949 22.4436 5.78583 20.7463C4.67677 19.0491 4.10636 17.0677 4.14675 15.0529C4.18714 13.0381 4.83652 11.0803 6.01275 9.42696C7.18898 7.77365 8.83926 6.49912 10.7549 5.76452C12.6706 5.02991 14.7656 4.86822 16.775 5.2999C18.7845 5.73159 20.6182 6.73726 22.0442 8.18974C23.9549 10.1376 24.9978 12.749 24.9437 15.4499C24.8895 18.1508 23.7427 20.7201 21.7553 22.593V22.5991Z" fill="url(#paint0_linear)"/>
<path d="M25.0301 4.25724C23.1118 2.35451 20.6635 1.0132 17.973 0.390928C15.2825 -0.231345 12.4615 -0.10871 9.84152 0.744409C7.22159 1.59753 4.91158 3.14568 3.18298 5.20694C1.45437 7.2682 0.378992 9.75691 0.0832293 12.3806C-0.212533 15.0043 0.283621 17.6539 1.51335 20.0181C2.74308 22.3823 4.6553 24.3629 7.0253 25.727C9.39529 27.0911 12.1246 27.782 14.8924 27.7187C17.6602 27.6554 20.3516 26.8404 22.6502 25.3695L33.1621 35.7924C33.2265 35.8565 33.3035 35.9078 33.3888 35.9434C33.4741 35.979 33.5659 35.9982 33.659 35.9999C33.752 36.0016 33.8445 35.9857 33.9312 35.9531C34.0178 35.9206 34.0968 35.8721 34.1637 35.8104L36.7822 33.4164C36.8495 33.355 36.9033 33.2816 36.9406 33.2003C36.978 33.119 36.9981 33.0315 36.9999 32.9428C37.0016 32.8541 36.985 32.7659 36.9509 32.6834C36.9167 32.6008 36.8658 32.5255 36.8011 32.4618L26.2923 22.0328C28.3073 19.401 29.2852 16.1768 29.0544 12.9262C28.8235 9.67556 27.3988 6.60632 25.0301 4.25724V4.25724ZM21.7553 21.0154C20.2722 22.3741 18.3996 23.2833 16.3744 23.6278C14.3492 23.9723 12.2623 23.7367 10.3776 22.9508C8.49283 22.1649 6.8949 20.864 5.78583 19.2126C4.67677 17.5612 4.10636 15.6335 4.14675 13.6731C4.18714 11.7128 4.83652 9.80784 6.01275 8.19921C7.18898 6.59058 8.83926 5.35048 10.7549 4.63573C12.6706 3.92098 14.7656 3.76367 16.775 4.18369C18.7845 4.6037 20.6182 5.58218 22.0442 6.99541C23.9549 8.89065 24.9978 11.4315 24.9437 14.0594C24.8895 16.6873 23.7427 19.1871 21.7553 21.0094V21.0154Z" fill="#A9A9A9"/>
<defs>
<linearGradient id="paint0_linear" x1="18.5151" y1="37.9989" x2="18.5151" y2="1.00194" gradientUnits="userSpaceOnUse">
<stop stop-color="#B3B3B3" stop-opacity="0.25"/>
<stop offset="0.54" stop-color="#B3B3B3" stop-opacity="0.1"/>
<stop offset="1" stop-color="#B3B3B3" stop-opacity="0.05"/>
</linearGradient>
</defs>
</svg>
